<?xml version="1.0" encoding="UTF-8"?>
<svg version="1.1" xmlns="http://www.w3.org/2000/svg" width="666" height="375">
<path d="M0 0 C0.91217285 0.24065186 1.8243457 0.48130371 2.76416016 0.72924805 C7.67481926 2.09241516 12.12601904 3.72481571 16.61743164 6.14257812 C18.43787787 7.09541065 20.28036682 7.86264176 22.1875 8.625 C25.17872773 9.97398506 26.18434982 10.81708356 28.375 13.0625 C30.46723721 14.63467825 32.59469928 16.14780057 34.73046875 17.66015625 C35.54451172 18.35431641 35.54451172 18.35431641 36.375 19.0625 C36.375 19.7225 36.375 20.3825 36.375 21.0625 C37.035 21.0625 37.695 21.0625 38.375 21.0625 C46.12429673 31.13658575 49.06313713 42.11363031 47.75 54.625 C47.65372314 55.59228027 47.55744629 56.55956055 47.45825195 57.55615234 C45.82731797 72.46861021 41.06255568 85.68738863 34.375 99.0625 C33.32180316 101.71247915 32.34601747 104.38064222 31.375 107.0625 C32.2 107.84625 33.025 108.63 33.875 109.4375 C36.375 112.0625 36.375 112.0625 36.375 114.0625 C37.035 114.0625 37.695 114.0625 38.375 114.0625 C38.4575 114.68125 38.54 115.3 38.625 115.9375 C39.14841441 118.21553678 39.14841441 118.21553678 41.1875 118.9375 C44.34929805 120.56356757 45.49994509 123.09870353 47.375 126.0625 C47.86613281 126.54589844 48.35726562 127.02929688 48.86328125 127.52734375 C51.07610767 129.77447755 52.31042966 132.33248645 53.7890625 135.1015625 C55.00333362 137.3686007 56.24897387 139.60313046 57.5234375 141.8359375 C63.01560057 151.61694396 66.73388487 161.17259182 69.375 172.0625 C69.54682297 172.73631714 69.71864594 173.41013428 69.89567566 174.10437012 C71.20109264 179.49502356 71.69504132 184.55727484 71.7109375 190.09375 C71.7175943 190.92853882 71.7242511 191.76332764 71.73110962 192.62341309 C71.74116853 194.3814069 71.74592875 196.13943838 71.74560547 197.89746094 C71.74994422 200.52867088 71.78623973 203.15815197 71.82421875 205.7890625 C71.94793911 224.38974055 68.02946554 241.9717241 58.375 258.0625 C57.30455962 260.37263843 56.33755611 262.70423753 55.375 265.0625 C54.715 265.0625 54.055 265.0625 53.375 265.0625 C53.25382813 265.64644531 53.13265625 266.23039062 53.0078125 266.83203125 C50.95755413 274.0585592 45.01761857 280.33592203 40.375 286.0625 C39.81039062 286.76375 39.24578125 287.465 38.6640625 288.1875 C37.28507426 289.85573943 35.83599976 291.46559329 34.375 293.0625 C33.715 293.0625 33.055 293.0625 32.375 293.0625 C32.13652344 293.64515625 31.89804687 294.2278125 31.65234375 294.828125 C30.11174268 297.52299904 28.39280644 298.92566352 25.9375 300.8125 C25.15503906 301.42609375 24.37257813 302.0396875 23.56640625 302.671875 C21.375 304.0625 21.375 304.0625 18.375 304.0625 C18.045 305.0525 17.715 306.0425 17.375 307.0625 C15.08641533 308.63940866 12.83926635 310.05537604 10.4375 311.4375 C9.75743896 311.83598145 9.07737793 312.23446289 8.37670898 312.64501953 C-1.25165984 318.23642 -10.82981612 323.05991378 -21.71484375 325.59765625 C-23.41324563 326.01096877 -25.08519196 326.52976143 -26.75 327.0625 C-45.78174329 332.4151778 -72.23926999 333.00253208 -90.625 325.0625 C-92.05564332 324.73887153 -93.49369759 324.44617027 -94.9375 324.1875 C-98.86948561 323.35698159 -102.02922145 322.01589215 -105.55078125 320.11328125 C-107.74092045 319.0037757 -109.9389083 318.20065919 -112.25 317.375 C-118.18384487 315.08070284 -123.26171376 311.60246562 -128.5234375 308.0859375 C-130.86537855 306.55807168 -133.0916686 305.22309025 -135.625 304.0625 C-135.625 303.4025 -135.625 302.7425 -135.625 302.0625 C-136.615 301.7325 -137.605 301.4025 -138.625 301.0625 C-140 299.8125 -140 299.8125 -141.625 298.0625 C-143.98154442 295.64394126 -146.24695463 293.34651056 -148.94921875 291.31640625 C-152.12496247 288.64136373 -154.53522545 285.71390875 -157.0625 282.4375 C-157.54477051 281.81721924 -158.02704102 281.19693848 -158.52392578 280.55786133 C-162.3130961 275.61482671 -165.61877387 270.51995667 -168.625 265.0625 C-169.07488281 264.28132813 -169.52476562 263.50015625 -169.98828125 262.6953125 C-175.76822705 252.56761986 -178.89535705 242.10084784 -181.75 230.875 C-182.00608032 229.87738647 -182.00608032 229.87738647 -182.26733398 228.85961914 C-187.26751771 208.82652863 -186.09141012 185.87335597 -180.625 166.0625 C-180.191875 164.40154297 -180.191875 164.40154297 -179.75 162.70703125 C-174.2386531 144.08163123 -161.49393639 124.4923144 -147.625 111.0625 C-146.965 111.0625 -146.305 111.0625 -145.625 111.0625 C-145.13 109.0825 -145.13 109.0825 -144.625 107.0625 C-143.965 107.0625 -143.305 107.0625 -142.625 107.0625 C-143.22041454 105.30950288 -143.82671914 103.56020252 -144.4375 101.8125 C-144.77394531 100.83796875 -145.11039063 99.8634375 -145.45703125 98.859375 C-146.47007444 96.09722773 -146.47007444 96.09722773 -148.07421875 94.17578125 C-150.24986553 91.210983 -151.38179225 87.92756922 -152.625 84.5 C-152.88627686 83.78763184 -153.14755371 83.07526367 -153.41674805 82.34130859 C-159.31374997 66.02105677 -163.06488805 47.53269898 -156.3125 30.8125 C-155.755625 29.905 -155.19875 28.9975 -154.625 28.0625 C-154.11839844 27.23685547 -154.11839844 27.23685547 -153.6015625 26.39453125 C-150.41231435 21.54644598 -146.4167536 17.36058982 -141.625 14.0625 C-140.635 14.0625 -139.645 14.0625 -138.625 14.0625 C-138.13 12.5775 -138.13 12.5775 -137.625 11.0625 C-133.72776643 8.58925562 -129.93504639 6.70442243 -125.625 5.0625 C-124.81289063 4.65064453 -124.81289063 4.65064453 -123.984375 4.23046875 C-87.99751597 -13.55043994 -37.62646288 -10.03813303 0 0 Z M-97.75 33 C-99.26291626 33.37922607 -99.26291626 33.37922607 -100.80639648 33.76611328 C-101.75973877 34.01731934 -102.71308105 34.26852539 -103.6953125 34.52734375 C-104.54883301 34.750271 -105.40235352 34.97319824 -106.28173828 35.20288086 C-108.82493852 36.1358469 -110.50175124 37.40237233 -112.625 39.0625 C-113.78 39.536875 -114.935 40.01125 -116.125 40.5 C-119.63956298 42.06900133 -121.27385039 43.07659078 -123.625 46.0625 C-124.82822803 53.31029088 -123.84113305 59.51537201 -120.625 66.0625 C-119.62139184 69.64740487 -118.68896136 73.24416087 -117.78515625 76.85546875 C-116.55332997 80.26061817 -115.34769478 81.74474613 -112.625 84.0625 C-111.965 84.7225 -111.305 85.3825 -110.625 86.0625 C-109.779375 85.72476563 -108.93375 85.38703125 -108.0625 85.0390625 C-101.96228138 82.64056745 -96.04032598 80.40183999 -89.625 79.0625 C-88.51898438 78.81628906 -87.41296875 78.57007813 -86.2734375 78.31640625 C-65.01379647 73.63928522 -41.47792147 72.70448717 -20.625 80.0625 C-19.0471875 80.2171875 -19.0471875 80.2171875 -17.4375 80.375 C-12.91127718 81.19120412 -9.35743293 82.93850455 -5.2734375 85.00390625 C-2.50188507 86.11170966 -0.57783314 86.27037093 2.375 86.0625 C10.00625977 73.52543038 13.35209982 60.78716699 12.375 46.0625 C11.15353442 42.39810325 9.68080505 41.87033244 6.36035156 40.15673828 C5.66393555 39.81626465 4.96751953 39.47579102 4.25 39.125 C3.53295898 38.77163574 2.81591797 38.41827148 2.07714844 38.05419922 C-12.4980364 31.12475088 -28.50248591 28.89032711 -44.5 28.4375 C-45.64114258 28.40100342 -46.78228516 28.36450684 -47.95800781 28.3269043 C-51.18015857 28.22882486 -54.40239024 28.14383608 -57.625 28.0625 C-58.39295898 28.03913574 -59.16091797 28.01577148 -59.95214844 27.99169922 C-73.07320526 27.60616693 -85.09728036 29.78739156 -97.75 33 Z M-119.625 106.0625 C-120.470625 106.5575 -121.31625 107.0525 -122.1875 107.5625 C-124.73760085 109.13179283 -126.55219408 110.91821801 -128.625 113.0625 C-129.615 113.5575 -129.615 113.5575 -130.625 114.0625 C-130.625 114.7225 -130.625 115.3825 -130.625 116.0625 C-131.615 116.3925 -132.605 116.7225 -133.625 117.0625 C-133.955 117.7225 -134.285 118.3825 -134.625 119.0625 C-135.615 119.3925 -136.605 119.7225 -137.625 120.0625 C-138.9790932 122.04850337 -140.30957624 124.05067543 -141.625 126.0625 C-143.2709651 127.74961423 -144.93737149 129.4170622 -146.625 131.0625 C-149.19991471 133.99504175 -151.0454152 136.15030257 -151.625 140.0625 C-152.285 140.0625 -152.945 140.0625 -153.625 140.0625 C-164.25041789 159.37330161 -171.03298327 177.31701819 -170.9375 199.625 C-170.93600952 200.28724579 -170.93451904 200.94949158 -170.9329834 201.63180542 C-170.8608286 219.47261855 -168.46273872 237.25076338 -159.625 253.0625 C-159.10164063 254.02929688 -158.57828125 254.99609375 -158.0390625 255.9921875 C-156.57793696 258.68806701 -155.10576787 261.37737426 -153.625 264.0625 C-152.965 264.0625 -152.305 264.0625 -151.625 264.0625 C-151.563125 264.59875 -151.50125 265.135 -151.4375 265.6875 C-150.26794485 269.10619966 -147.94905204 271.33173885 -145.625 274.0625 C-145.295 275.0525 -144.965 276.0425 -144.625 277.0625 C-143.17563815 278.3142216 -141.72048243 279.56060265 -140.22265625 280.75390625 C-137.85946591 282.6895267 -135.78443076 284.90306924 -133.625 287.0625 C-123.97409246 296.67117162 -112.41001019 303.49336045 -99.625 308.0625 C-97.93626637 308.76788718 -96.24877824 309.47626301 -94.5625 310.1875 C-89.97744494 312.03314815 -85.47341839 313.12409644 -80.625 314.0625 C-81.25728516 313.23105469 -81.25728516 313.23105469 -81.90234375 312.3828125 C-82.45019531 311.65835938 -82.99804688 310.93390625 -83.5625 310.1875 C-84.10777344 309.46820313 -84.65304687 308.74890625 -85.21484375 308.0078125 C-86.625 306.0625 -86.625 306.0625 -87.625 304.0625 C-88.615 304.0625 -89.605 304.0625 -90.625 304.0625 C-90.934375 303.27875 -91.24375 302.495 -91.5625 301.6875 C-92.55375038 299.13919872 -92.55375038 299.13919872 -93.625 297.0625 C-94.285 297.0625 -94.945 297.0625 -95.625 297.0625 C-95.851875 296.4025 -96.07875 295.7425 -96.3125 295.0625 C-97.40247545 292.57112755 -98.54246559 290.52375368 -100 288.25 C-105.73313931 279.2118745 -111.47937899 268.1090157 -109.625 257.0625 C-108.46413184 252.99673641 -107.05102995 249.04123242 -105.625 245.0625 C-104.91405036 242.73824156 -104.26457011 240.4075904 -103.625 238.0625 C-102.965 238.0625 -102.305 238.0625 -101.625 238.0625 C-100.25189293 236.77016393 -98.91465176 235.43812854 -97.625 234.0625 C-97.55768677 235.34713135 -97.55768677 235.34713135 -97.48901367 236.65771484 C-97.31415826 239.88263225 -97.1282841 243.10668675 -96.93530273 246.33056641 C-96.85449202 247.71704049 -96.77787948 249.1037667 -96.70581055 250.49072266 C-96.16261974 260.86754023 -95.28683567 270.52068249 -89.625 279.5 C-89.13 280.30308594 -88.635 281.10617187 -88.125 281.93359375 C-86.75876219 283.87265523 -85.36143993 285.45525947 -83.625 287.0625 C-84.31665788 281.64451328 -85.38299248 276.3802215 -86.625 271.0625 C-81.63756118 272.33835644 -78.96637482 274.14831807 -75.625 278.0625 C-75.295 279.0525 -74.965 280.0425 -74.625 281.0625 C-73.965 281.0625 -73.305 281.0625 -72.625 281.0625 C-72.521875 281.660625 -72.41875 282.25875 -72.3125 282.875 C-71.80167703 285.10281788 -71.80167703 285.10281788 -70.2421875 286.4140625 C-68.36526079 288.32725832 -67.30730322 290.25636189 -66.0625 292.625 C-64.70822518 295.19432512 -63.6893321 296.9981679 -61.625 299.0625 C-60.86723736 300.74948982 -60.16388218 302.46140633 -59.5 304.1875 C-59.14679688 305.09757813 -58.79359375 306.00765625 -58.4296875 306.9453125 C-58.03136719 307.99332031 -58.03136719 307.99332031 -57.625 309.0625 C-56.635 309.0625 -55.645 309.0625 -54.625 309.0625 C-54.45484375 308.39863281 -54.2846875 307.73476563 -54.109375 307.05078125 C-53.74585938 305.72626953 -53.74585938 305.72626953 -53.375 304.375 C-53.14296875 303.50488281 -52.9109375 302.63476562 -52.671875 301.73828125 C-51.44362683 298.59891559 -49.78587318 296.65100658 -47.625 294.0625 C-46.73751916 292.78944633 -45.86487061 291.50597824 -45.00390625 290.21484375 C-44.54306641 289.52712891 -44.08222656 288.83941406 -43.60742188 288.13085938 C-42.66020112 286.70937679 -41.71748914 285.28487946 -40.77929688 283.85742188 C-38.0873702 279.85895339 -35.55328674 276.95155744 -31.625 274.0625 C-31.295 273.4025 -30.965 272.7425 -30.625 272.0625 C-29.305 271.7325 -27.985 271.4025 -26.625 271.0625 C-26.955 275.3525 -27.285 279.6425 -27.625 284.0625 C-21.34013122 279.87258748 -18.49690348 271.31333723 -17.01977539 264.11181641 C-16.57153986 261.03685625 -16.20392183 257.96493034 -15.875 254.875 C-15.74996094 253.83408203 -15.62492188 252.79316406 -15.49609375 251.72070312 C-14.88926994 246.46934323 -14.47548617 241.3478139 -14.625 236.0625 C-12.33203125 236.6015625 -12.33203125 236.6015625 -9.625 238.0625 C-8.2360314 240.58734966 -7.24664301 242.75102715 -6.3125 245.4375 C-6.05686279 246.16066406 -5.80122559 246.88382813 -5.5378418 247.62890625 C-1.55615326 259.61507489 -3.63213558 270.67226522 -8.625 282.0625 C-10.54597572 285.72547855 -12.74655005 289.15301635 -15.05078125 292.5859375 C-16.80381492 294.85472177 -16.80381492 294.85472177 -16.625 297.0625 C-17.615 297.3925 -18.605 297.7225 -19.625 298.0625 C-20.63851664 299.72098177 -21.63620795 301.38915961 -22.625 303.0625 C-24.29166667 304.72916667 -25.95833333 306.39583333 -27.625 308.0625 C-27.625 308.7225 -27.625 309.3825 -27.625 310.0625 C-28.615 310.3925 -29.605 310.7225 -30.625 311.0625 C-30.625 311.7225 -30.625 312.3825 -30.625 313.0625 C-13.95781936 310.31476523 0.0082252 303.21955952 13.375 293.0625 C14.66366706 292.18308827 15.95490767 291.30742163 17.25 290.4375 C20.53752906 287.93897792 22.7790131 285.2575608 25.375 282.0625 C26.4609228 281.14463668 27.56528854 280.24812246 28.6875 279.375 C30.0178125 278.2303125 30.0178125 278.2303125 31.375 277.0625 C31.375 276.0725 31.375 275.0825 31.375 274.0625 C32.365 273.7325 33.355 273.4025 34.375 273.0625 C38.24767719 268.32217382 41.19919878 262.770898 44.1015625 257.3984375 C45.13348661 255.50552149 46.22249156 253.64379913 47.328125 251.79296875 C49.4960671 248.00084541 51.04623816 244.11130002 52.5 240 C52.75136719 239.33806641 53.00273437 238.67613281 53.26171875 237.99414062 C57.53915516 226.0016422 57.72494821 213.33260454 57.69067383 200.74755859 C57.68748542 198.30131532 57.71117859 195.8562537 57.73632812 193.41015625 C57.77055283 185.128671 57.49130952 177.85372899 54.375 170.0625 C53.89636468 168.67649533 53.41974062 167.28979417 52.9453125 165.90234375 C50.27285056 158.58900838 47.42715112 151.73457641 43.375 145.0625 C42.78203125 144.00417969 42.1890625 142.94585937 41.578125 141.85546875 C40.95421875 140.74816406 40.3303125 139.64085937 39.6875 138.5 C39.10613281 137.46746094 38.52476562 136.43492187 37.92578125 135.37109375 C37.41402344 134.60925781 36.90226563 133.84742188 36.375 133.0625 C35.715 133.0625 35.055 133.0625 34.375 133.0625 C34.045 132.0725 33.715 131.0825 33.375 130.0625 C32.715 130.0625 32.055 130.0625 31.375 130.0625 C31.375 129.0725 31.375 128.0825 31.375 127.0625 C29.06243506 124.33323609 29.06243506 124.33323609 26.375 122.0625 C25.715 122.0625 25.055 122.0625 24.375 122.0625 C24.045 121.0725 23.715 120.0825 23.375 119.0625 C21.72860035 117.70422029 20.06204193 116.36995749 18.375 115.0625 C18.045 114.4025 17.715 113.7425 17.375 113.0625 C15.7256683 112.0341602 14.05588117 111.03841817 12.375 110.0625 C10.76234562 108.92864349 9.15826298 107.7825082 7.5625 106.625 C3.95819583 104.0832981 0.41310515 101.87594264 -3.58764648 100.0246582 C-5.48991143 99.12629677 -7.34147199 98.16253207 -9.203125 97.18359375 C-41.75436146 80.99762777 -90.90665152 82.34603677 -119.625 106.0625 Z M-28.625 284.0625 C-28.955 285.3825 -29.285 286.7025 -29.625 288.0625 C-28.965 287.7325 -28.305 287.4025 -27.625 287.0625 C-27.955 286.0725 -28.285 285.0825 -28.625 284.0625 Z " fill="#F0F0F0" transform="translate(399.625,24.9375)"/>
<path d="M0 0 C5.90042053 0.59004205 10.7117768 1.7117768 15 6 C15.9590625 6.0928125 15.9590625 6.0928125 16.9375 6.1875 C19 7 19 7 20.6875 10 C22.30302644 14.22319684 22.70509242 18.51537093 23 23 C23.10957031 22.18015625 23.21914063 21.3603125 23.33203125 20.515625 C23.56986328 18.89914063 23.56986328 18.89914063 23.8125 17.25 C23.96332031 16.18265625 24.11414063 15.1153125 24.26953125 14.015625 C25.40823979 9.31464643 27.02555653 7.65004648 31.0390625 4.97265625 C40.11162209 -0.05173638 40.11162209 -0.05173638 44.8515625 0.078125 C48.34998967 1.14930465 50.36385669 1.89882787 52.234375 5.13671875 C52.61335938 6.05904297 52.61335938 6.05904297 53 7 C53.99 7 54.98 7 56 7 C57.37535339 8.97133986 58.70211044 10.97681922 60 13 C60.9075 13.9075 61.815 14.815 62.75 15.75 C63.4925 16.4925 64.235 17.235 65 18 C65 18.66 65 19.32 65 20 C65.66 20 66.32 20 67 20 C68.5 22.25 68.5 22.25 70 25 C70.37125 25.598125 70.7425 26.19625 71.125 26.8125 C74.70019136 35.7504784 74.28909153 48.30150966 70.8515625 57.15234375 C69.74072447 59.56255654 68.43189183 61.76624875 67 64 C65.96322533 66.06551234 64.95830252 68.14380636 63.96484375 70.23046875 C63 72 63 72 61 74 C58.12911603 73.85078566 57.09120838 73.08975775 55.03515625 71.06640625 C49.59406882 64.15999626 44.2073636 56.93158136 43 48 C43.75 44.9375 43.75 44.9375 46 42 C48.75165349 40.80176831 51.52773714 39.90921137 54.390625 39.01171875 C57.68751238 37.73343457 59.23114494 36.03232296 61 33 C57.34857269 30.56571513 56.32288211 30.37121715 52 31 C45.54255799 33.94767841 45.54255799 33.94767841 41 39 C40.18927191 49.21517388 43.24542303 57.48199087 49.6328125 65.44140625 C50.70970452 66.66906316 51.84526239 67.84526239 53 69 C53 69.99 53 70.98 53 72 C54.485 72.495 54.485 72.495 56 73 C58.18783802 77.35766915 59.43028064 82.12348606 59 87 C59 87.99 59 88.98 59 90 C58.6875 92.5625 58.6875 92.5625 58 95 C57.01 95.66 56.02 96.32 55 97 C55.66 98.32 56.32 99.64 57 101 C54.17615253 104.22725426 52.34478553 105.7324889 48.09375 106.578125 C39.50962776 107.0277695 33.4171536 104.75089175 27 99 C24.87180383 95.56616201 24.43455483 93.03889407 25 89 C29.0225839 83.25345157 33.96000931 79.5233279 40 76 C40.33 75.67 40.66 75.34 41 75 C37.9450722 73.4725361 34.7236686 73.76008168 31.3671875 73.68359375 C30.61535187 73.66281265 29.86351624 73.64203156 29.08889771 73.62062073 C26.68435915 73.55517295 24.27971033 73.49626262 21.875 73.4375 C20.24608229 73.39431023 18.61717578 73.35069579 16.98828125 73.30664062 C12.99230085 73.19949649 8.99620941 73.09821567 5 73 C5.495 73.61875 5.99 74.2375 6.5 74.875 C8 77 8 77 8 79 C9.175625 79.2165625 9.175625 79.2165625 10.375 79.4375 C13 80 13 80 15 81 C15 81.66 15 82.32 15 83 C15.598125 83.20625 16.19625 83.4125 16.8125 83.625 C19.9333661 85.58668727 20.74692608 87.57053453 22 91 C22 94.91218491 21.35890758 96.54320853 18.9375 99.625 C12.14889599 105.11365857 6.78746862 106.70858385 -2.0546875 106.47265625 C-5.0236892 105.99619842 -6.22504665 105.5934175 -8.3125 103.5 C-8.869375 102.675 -9.42625 101.85 -10 101 C-9.505 99.515 -9.505 99.515 -9 98 C-8.34 98 -7.68 98 -7 98 C-7 97.34 -7 96.68 -7 96 C-8.65 95.67 -10.3 95.34 -12 95 C-11.835 94.21625 -11.67 93.4325 -11.5 92.625 C-10.96559621 89.81938008 -10.90055811 88.37787919 -11.625 85.625 C-12.07577464 82.46957754 -11.49287659 81.75003582 -10 79 C-9.23939673 76.35065035 -8.62667206 73.68573739 -8 71 C-8.4125 71.515625 -8.825 72.03125 -9.25 72.5625 C-11 74 -11 74 -13 73.9375 C-18.03827078 71.57581057 -19.92155217 65.2197082 -22.125 60.4375 C-22.48464844 59.66986328 -22.84429687 58.90222656 -23.21484375 58.11132812 C-27.25326833 49.43703413 -28.74399131 40.74641848 -25.875 31.3125 C-22.99033401 23.92394512 -18.89794872 17.32253909 -13 12 C-11.17864059 10.12320791 -9.36353497 8.24057184 -7.55078125 6.35546875 C-6 5 -6 5 -4 5 C-4 4.34 -4 3.68 -4 3 C-2.68 2.67 -1.36 2.34 0 2 C0 1.34 0 0.68 0 0 Z M-13 30 C-14.21690533 31.76529595 -14.21690533 31.76529595 -15 34 C-14.23975723 37.13600143 -13.09431809 37.93936694 -10.375 39.6875 C-6.45870642 41.21050306 -3.17459046 41.64012151 1 42 C2.04559253 48.58723293 1.83292414 53.59233959 0 60 C3.29344291 59.27866256 3.29344291 59.27866256 4.67578125 55.96484375 C6.30647933 51.80246827 6.34515137 47.98078061 6.1875 43.5625 C6.17396484 42.83095703 6.16042969 42.09941406 6.14648438 41.34570312 C6.11153874 39.56347578 6.05774805 37.78163427 6 36 C3.96539231 34.98571486 1.92195394 33.98913211 -0.125 33 C-1.26195312 32.443125 -2.39890625 31.88625 -3.5703125 31.3125 C-7.01319533 29.99495031 -9.35669762 29.73422718 -13 30 Z M-2 60 C-4.169283 63.1635377 -5.66749209 66.4124787 -7 70 C-6.01 69.34 -5.02 68.68 -4 68 C-4 67.34 -4 66.68 -4 66 C-3.34 66 -2.68 66 -2 66 C0.2773501 63.18490007 0.2773501 63.18490007 0 60 C-0.66 60 -1.32 60 -2 60 Z " fill="#F2F2F2" transform="translate(320,164)"/>
<path d="M0 0 C4.62497426 0.53073475 7.53174305 2.14677114 10.8125 5.4375 C10.8125 6.0975 10.8125 6.7575 10.8125 7.4375 C11.328125 7.664375 11.84375 7.89125 12.375 8.125 C16.54821434 10.37211541 20.40437884 13.02371236 23.75390625 16.38671875 C25.80778294 18.43280084 27.9331039 20.13632407 30.25 21.875 C33.70808632 24.52506942 36.76982843 27.31259406 39.8125 30.4375 C40.8025 31.241875 41.7925 32.04625 42.8125 32.875 C45.89153881 35.50501232 48.26328401 38.3000034 50.8125 41.4375 C51.6375 42.2625 52.4625 43.0875 53.3125 43.9375 C58.33538422 48.96038422 61.68134456 53.35856 64.125 60 C64.3820874 60.69673828 64.6391748 61.39347656 64.90405273 62.11132812 C68.15430852 71.56583419 68.08789511 80.3522854 63.8125 89.4375 C62.4925 89.4375 61.1725 89.4375 59.8125 89.4375 C58.29612842 86.83800586 57.63077611 84.65868335 56.9375 81.6875 C54.96084942 73.57125291 50.78755974 67.864304 45.421875 61.5390625 C43.8125 59.4375 43.8125 59.4375 43.8125 57.4375 C42.8225 57.1075 41.8325 56.7775 40.8125 56.4375 C40.8125 55.7775 40.8125 55.1175 40.8125 54.4375 C40.214375 54.169375 39.61625 53.90125 39 53.625 C36.81402146 52.43832594 35.39917406 51.34150887 33.8125 49.4375 C33.8125 48.7775 33.8125 48.1175 33.8125 47.4375 C33.22984375 47.169375 32.6471875 46.90125 32.046875 46.625 C29.78463399 45.42269009 28.00673682 44.09924087 26.0625 42.4375 C25.44890625 41.921875 24.8353125 41.40625 24.203125 40.875 C22.8125 39.4375 22.8125 39.4375 22.8125 37.4375 C21.3275 36.9425 21.3275 36.9425 19.8125 36.4375 C17.98828125 34.66015625 17.98828125 34.66015625 16.125 32.5 C15.50238281 31.78972656 14.87976563 31.07945312 14.23828125 30.34765625 C12.8125 28.4375 12.8125 28.4375 12.8125 26.4375 C12.214375 26.19 11.61625 25.9425 11 25.6875 C8.49623081 24.25677475 7.33177612 22.8683418 5.8125 20.4375 C5.8125 19.7775 5.8125 19.1175 5.8125 18.4375 C5.173125 18.169375 4.53375 17.90125 3.875 17.625 C1.8125 16.4375 1.8125 16.4375 0.8125 13.4375 C-0.81303283 11.73069053 -2.47865995 10.06089805 -4.1875 8.4375 C-5.1875 7.4375 -5.1875 7.4375 -5.375 5 C-5.08255966 1.00331533 -3.8600968 0.52981721 0 0 Z " fill="#EAEAEA" transform="translate(383.1875,159.5625)"/>
<path d="M0 0 C1.16882425 4.09088487 1.01464796 6.2454288 -1 10 C-2.61879107 12.0813028 -4.24887093 14.03744852 -6 16 C-7.16723386 17.33283683 -8.33387302 18.66619463 -9.5 20 C-10.09167969 20.6703125 -10.68335938 21.340625 -11.29296875 22.03125 C-12.84557777 23.82190205 -14.33275258 25.64922446 -15.8125 27.5 C-16.534375 28.325 -17.25625 29.15 -18 30 C-18.66 30 -19.32 30 -20 30 C-20.495 31.485 -20.495 31.485 -21 33 C-22.61838719 34.71358643 -24.29671681 36.3707726 -26 38 C-27.16933332 39.1639939 -28.33587785 40.33079435 -29.5 41.5 C-38 50 -38 50 -40.5 52.4375 C-43.07253019 55.0074975 -43.07253019 55.0074975 -45.5 58 C-47.86759967 60.8411196 -50.38726974 63.38726974 -53 66 C-56.98700755 70.3036945 -58.75833747 74.89740039 -60.75 80.3125 C-61.06582031 81.14845703 -61.38164062 81.98441406 -61.70703125 82.84570312 C-62.4796087 84.89420395 -63.24362333 86.94547434 -64 89 C-64.99 89 -65.98 89 -67 89 C-71.49467973 77.44225212 -70.34175152 66.97764199 -66.015625 55.35546875 C-65 53.1875 -65 53.1875 -63 50 C-61.515 49.505 -61.515 49.505 -60 49 C-59.87625 48.401875 -59.7525 47.80375 -59.625 47.1875 C-58.71276862 43.99469017 -56.5990437 43.00835195 -54 41 C-53.10283782 39.93494782 -52.2278034 38.85089167 -51.375 37.75 C-50.59125 36.8425 -49.8075 35.935 -49 35 C-48.01 35 -47.02 35 -46 35 C-45.938125 34.401875 -45.87625 33.80375 -45.8125 33.1875 C-44.66864193 30.10788212 -42.82304548 29.57565329 -40 28 C-38.6434836 26.69026002 -37.31442362 25.35197858 -36 24 C-34.63663367 22.7373214 -33.26056907 21.48827434 -31.875 20.25 C-31.19179688 19.63640625 -30.50859375 19.0228125 -29.8046875 18.390625 C-28 17 -28 17 -26 17 C-25.505 15.515 -25.505 15.515 -25 14 C-23.625 12.3125 -23.625 12.3125 -22 11 C-21.01 11 -20.02 11 -19 11 C-18.77828125 10.41734375 -18.5565625 9.8346875 -18.328125 9.234375 C-16.59102274 6.3119559 -14.60519347 5.07545156 -11.75 3.25 C-10.81671875 2.63640625 -9.8834375 2.0228125 -8.921875 1.390625 C-5.68027237 -0.15216984 -3.54463025 -0.27266387 0 0 Z " fill="#E9E9E9" transform="translate(307,160)"/>
<path d="M0 0 C4.76858157 14.60378107 -1.09836151 27.46376538 -7.375 40.625 C-14.41707636 55.44182733 -19.23995246 70.64369615 -21 87 C-25.20118413 85.59960529 -25.857329 83.26550168 -27.8671875 79.48046875 C-29.44327629 76.02937777 -30.19683047 72.70693628 -31 69 C-31.47953125 67.86304688 -31.47953125 67.86304688 -31.96875 66.703125 C-36.26138767 55.4512111 -35.37976892 44.17538699 -30.84375 33.203125 C-26.20265888 23.86697659 -18.71302432 14.98887575 -11 8 C-10.34 8 -9.68 8 -9 8 C-9 7.34 -9 6.68 -9 6 C-7.5390625 4.4921875 -7.5390625 4.4921875 -5.625 2.875 C-4.68527344 2.06675781 -4.68527344 2.06675781 -3.7265625 1.2421875 C-2 0 -2 0 0 0 Z " fill="#EDEDED" transform="translate(283,203)"/>
<path d="M0 0 C1.65 0 3.3 0 5 0 C5 0.66 5 1.32 5 2 C5.8353125 2.37125 5.8353125 2.37125 6.6875 2.75 C9.45193405 4.24428867 11.68453468 5.87227511 14 8 C14.35169068 9.32860925 14.68770276 10.66158328 15 12 C15.5775 12.28875 16.155 12.5775 16.75 12.875 C19.11522351 14.05761175 19.99582823 15.03326534 21.625 17.0625 C23.67119397 20.00824713 23.67119397 20.00824713 26 21 C27.26874916 23.21225316 28.43426099 25.40543305 29.5625 27.6875 C29.87896484 28.30044922 30.19542969 28.91339844 30.52148438 29.54492188 C35.5815551 39.67580657 35.78527017 54.98253944 32.765625 65.91796875 C30.47582533 72.14482194 27.82840245 78.5560313 24 84 C23.01 84 22.02 84 21 84 C20.89977539 83.37134033 20.79955078 82.74268066 20.69628906 82.0949707 C17.57944292 60.65258115 17.57944292 60.65258115 9 41 C3.25725709 30.2278984 -0.18835194 20.95322384 -0.0625 8.6875 C-0.05798828 7.85154297 -0.05347656 7.01558594 -0.04882812 6.15429688 C-0.03710548 4.10283351 -0.01917203 2.05140727 0 0 Z " fill="#EEEEEE" transform="translate(403,205)"/>
<path d="M0 0 C10.25 10.53472222 10.25 10.53472222 10.25 17.3125 C10.91 17.3125 11.57 17.3125 12.25 17.3125 C12.25 16.3225 12.25 15.3325 12.25 14.3125 C12.91 14.3125 13.57 14.3125 14.25 14.3125 C14.45625 13.4875 14.6625 12.6625 14.875 11.8125 C17.15983788 5.99654903 20.13546801 1.61375046 25.5 -1.6875 C33.69318165 -3.87234844 40.47122556 -2.84410412 48.25 0.3125 C48.1875 2.5625 48.1875 2.5625 47.25 5.3125 C44.59257905 7.4023813 41.71449449 9.3125 38.25 9.3125 C37.59 10.6325 36.93 11.9525 36.25 13.3125 C35.59 13.3125 34.93 13.3125 34.25 13.3125 C33.755 14.7975 33.755 14.7975 33.25 16.3125 C32.59 16.3125 31.93 16.3125 31.25 16.3125 C30.99476563 16.86679688 30.73953125 17.42109375 30.4765625 17.9921875 C26.00717751 26.44701133 19.27238053 33.92867707 13.25 41.3125 C9.39275504 39.89838728 7.38797104 38.91329333 5.25 35.3125 C5.25 34.6525 5.25 33.9925 5.25 33.3125 C3.765 32.8175 3.765 32.8175 2.25 32.3125 C1.03125 30.66796875 1.03125 30.66796875 -0.25 28.5 C-6.69972598 18.47418833 -15.19686128 10.35819884 -24.75 3.3125 C-23.875 -0.5625 -23.875 -0.5625 -22.75 -1.6875 C-15.31678871 -2.88212324 -6.6591088 -4.08627131 0 0 Z " fill="#EAEAEA" transform="translate(331.75,124.6875)"/>
<path d="M0 0 C-0.1141866 1.93816735 -0.24173423 3.87555099 -0.375 5.8125 C-0.44460938 6.89144531 -0.51421875 7.97039062 -0.5859375 9.08203125 C-1 12 -1 12 -3 15 C-4.32 15 -5.64 15 -7 15 C-7.08121094 15.62261719 -7.16242188 16.24523437 -7.24609375 16.88671875 C-8 19 -8 19 -9.78515625 20.01953125 C-10.91244141 20.41205078 -10.91244141 20.41205078 -12.0625 20.8125 C-15.84170978 22.30018893 -18.27887585 23.98248731 -21.1875 26.8125 C-24.61472189 29.96147219 -24.61472189 29.96147219 -28.125 30.3125 C-31.86116297 28.60686038 -34.53774269 26.29174116 -37 23 C-37 22.34 -37 21.68 -37 21 C-37.9075 20.9175 -38.815 20.835 -39.75 20.75 C-43.49591685 19.88555765 -44.42883937 18.73704196 -47 16 C-48.65583225 15.30686092 -50.32110979 14.63525576 -52 14 C-53.73384186 10.53231628 -53.60128361 6.78335757 -53 3 C-50.8125 0.625 -50.8125 0.625 -48 -1 C-47.23558594 -1.49371094 -46.47117187 -1.98742187 -45.68359375 -2.49609375 C-30.51762027 -10.99522008 -15.02071514 -6.00828606 0 0 Z " fill="#F0F0F0" transform="translate(370,275)"/>
<path d="M0 0 C2.34375 0.24609375 2.34375 0.24609375 5 1 C6.40625 2.78515625 6.40625 2.78515625 7.5 5.0625 C7.91121094 5.87460938 8.32242187 6.68671875 8.74609375 7.5234375 C9.15988281 8.34070313 9.57367188 9.15796875 10 10 C12.25161766 13.79147775 14.64565238 17.47890057 17.125 21.125 C22.45217408 29.29333359 24.38222315 37.13549006 24.3125 46.75 C24.30730347 47.92743774 24.30730347 47.92743774 24.30200195 49.12866211 C24.17921904 55.75012064 23.02998154 61.6918798 21 68 C20.80664062 68.78503906 20.61328125 69.57007813 20.4140625 70.37890625 C18.63915114 77.00601036 14.78342647 82.13532637 10 87 C9.34 87 8.68 87 8 87 C8 87.66 8 88.32 8 89 C6.75 90.625 6.75 90.625 5 92 C3.68 92 2.36 92 1 92 C2.07298411 86.40785927 3.25394898 80.85459844 4.5625 75.3125 C8.65974081 57.53709667 7.84901876 40.18259474 0.0859375 23.55078125 C-1.75730716 19.22114541 -2.15466207 15.1761215 -2.1875 10.5 C-2.20167969 9.5821875 -2.21585937 8.664375 -2.23046875 7.71875 C-1.98342521 4.80447367 -1.21293885 2.64641203 0 0 Z " fill="#E8E8E8" transform="translate(393,229)"/>
<path d="M0 0 C1.32 0 2.64 0 4 0 C7.60639013 10.8191704 5.80300566 20.313417 0.9375 30.5 C-5.52334298 44.60988697 -5.06707763 65.83844592 -0.19921875 80.39453125 C0.53244671 82.26357241 1.26608101 84.13184258 2 86 C2.1875 89 2.1875 89 2 91 C-4.81721278 89.79696245 -8.85261956 83.40665087 -12.75 78.125 C-20.69482367 66.3410669 -22.50066498 51.06285128 -20.4375 37.1875 C-17.97009284 26.24055272 -11.18068784 16.18951189 -5 7 C-4.30197266 5.89398438 -4.30197266 5.89398438 -3.58984375 4.765625 C-2.3125 2.8125 -2.3125 2.8125 0 0 Z " fill="#E8E8E8" transform="translate(290,230)"/>
<path d="M0 0 C0.66 0.99 1.32 1.98 2 3 C2.721875 3.433125 3.44375 3.86625 4.1875 4.3125 C9.04972782 7.22983669 14.09390932 11.04255119 17 16 C17 16.99 17 17.98 17 19 C7.07438733 20.84662561 -2.23109586 21.5020575 -11 16 C-11 15.34 -11 14.68 -11 14 C-11.62648438 13.79503906 -12.25296875 13.59007812 -12.8984375 13.37890625 C-13.71570313 13.10949219 -14.53296875 12.84007812 -15.375 12.5625 C-16.18710937 12.29566406 -16.99921875 12.02882812 -17.8359375 11.75390625 C-20 11 -20 11 -22 10 C-24.83350235 9.63141433 -27.65912604 9.29854833 -30.5 9 C-38.72972973 8.13513514 -38.72972973 8.13513514 -41 7 C-39.81812449 3.32305396 -37.67163933 1.7777014 -34.31640625 0.01953125 C-21.99364254 -5.40414721 -12.06140506 -6.61211241 0 0 Z " fill="#EBEBEB" transform="translate(313,139)"/>
<path d="M0 0 C1.875 0.96484375 1.875 0.96484375 4.875 2.96484375 C4.875 3.95484375 4.875 4.94484375 4.875 5.96484375 C3.41666667 6.25651042 1.95833333 6.54817708 0.5 6.83984375 C-0.41394531 7.02546875 -1.32789063 7.21109375 -2.26953125 7.40234375 C-4.07516596 7.7580365 -5.88489978 8.09399212 -7.69921875 8.40234375 C-14.45516239 9.59020197 -20.45864075 11.61650051 -26.265625 15.3359375 C-34.10528287 20.31327424 -42.20123768 19.94790204 -51.125 17.96484375 C-50.87018469 14.22755253 -50.69202018 12.48461225 -47.875 9.90234375 C-46.9675 9.26296875 -46.06 8.62359375 -45.125 7.96484375 C-44.320625 7.16046875 -43.51625 6.35609375 -42.6875 5.52734375 C-29.18062828 -7.97952797 -16.96409833 -7.76481707 0 0 Z " fill="#ECECEC" transform="translate(409.125,140.03515625)"/>
<path d="M0 0 C2.29285186 2.29285186 1.18537057 7.79583793 1.1875 10.875 C1.19974609 11.79925781 1.21199219 12.72351563 1.22460938 13.67578125 C1.22654297 14.56394531 1.22847656 15.45210937 1.23046875 16.3671875 C1.23457764 17.18300293 1.23868652 17.99881836 1.24291992 18.83935547 C1 21 1 21 -1 24 C-3.625 24.1875 -3.625 24.1875 -6 24 C-7.34335143 19.96994571 -7.42901267 16.03438674 -7.71875 11.8125 C-7.90347198 8.9224826 -7.90347198 8.9224826 -9 6 C-10.73636719 6.03480469 -10.73636719 6.03480469 -12.5078125 6.0703125 C-14.04686851 6.08908148 -15.58593155 6.10728046 -17.125 6.125 C-17.88554687 6.14175781 -18.64609375 6.15851563 -19.4296875 6.17578125 C-23.99413947 6.21512997 -27.77020074 5.94133644 -32 4 C-34 1 -34 1 -34 -2 C-21.99966363 -5.75010511 -11.26542793 -6.15877609 0 0 Z " fill="#DEDEDE" transform="translate(424,159)"/>
<path d="M0 0 C0.495 1.485 0.495 1.485 1 3 C-1.22801894 5.76274349 -2.57418951 6.89571988 -6.0625 7.75 C-10.21397183 8.01358551 -14.29378975 7.98678254 -18.44921875 7.83984375 C-21.17889424 8.01123226 -22.71681476 8.52082581 -25 10 C-26.26439145 12.52878289 -26.29047383 14.62012127 -26.5 17.4375 C-26.73306642 20.56308718 -27.00474943 23.01424829 -28 26 C-29.65 26 -31.3 26 -33 26 C-36.51315384 20.44921693 -35.5315322 13.29764734 -35 7 C-34.12049321 3.67156712 -33.39213404 2.63748112 -31 0 C-21.65174504 -4.47937217 -9.74372586 -1.93492428 0 0 Z " fill="#DADADA" transform="translate(296,157)"/>
<path d="M0 0 C0.66 0 1.32 0 2 0 C0.6118265 3.12857014 -1.01101878 5.28189174 -3.4375 7.6875 C-4.03433594 8.28949219 -4.63117188 8.89148438 -5.24609375 9.51171875 C-7 11 -7 11 -10 12 C-8.40907948 7.86360664 -5.39525082 4.76786752 -2 2 C-1.34 2 -0.68 2 0 2 C0 1.34 0 0.68 0 0 Z " fill="#A7A7A7" transform="translate(316,167)"/>
<path d="M0 0 C0.75 1.75 0.75 1.75 1 4 C-0.8125 6.125 -0.8125 6.125 -3 8 C-3.66 8.66 -4.32 9.32 -5 10 C-5 6 -5 6 -3.625 4.25 C-2 3 -2 3 0 3 C0 2.01 0 1.02 0 0 Z " fill="#B9B9B9" transform="translate(254,133)"/>
<path d="M0 0 C0.33 0.66 0.66 1.32 1 2 C-2.465 4.97 -2.465 4.97 -6 8 C-6.66 7.67 -7.32 7.34 -8 7 C-5.42215154 4.35247996 -3.08351902 2.05567935 0 0 Z " fill="#B2B2B2" transform="translate(371,142)"/>
<path d="" fill="#000000" transform="translate(0,0)"/>
<path d="" fill="#000000" transform="translate(0,0)"/>
<path d="" fill="#000000" transform="translate(0,0)"/>
<path d="" fill="#000000" transform="translate(0,0)"/>
<path d="" fill="#000000" transform="translate(0,0)"/>
<path d="" fill="#000000" transform="translate(0,0)"/>
<path d="" fill="#000000" transform="translate(0,0)"/>
<path d="" fill="#000000" transform="translate(0,0)"/>
<path d="" fill="#000000" transform="translate(0,0)"/>
<path d="" fill="#000000" transform="translate(0,0)"/>
<path d="" fill="#000000" transform="translate(0,0)"/>
<path d="" fill="#000000" transform="translate(0,0)"/>
<path d="" fill="#000000" transform="translate(0,0)"/>
<path d="" fill="#000000" transform="translate(0,0)"/>
<path d="" fill="#000000" transform="translate(0,0)"/>
<path d="" fill="#000000" transform="translate(0,0)"/>
<path d="" fill="#000000" transform="translate(0,0)"/>
<path d="" fill="#000000" transform="translate(0,0)"/>
<path d="" fill="#000000" transform="translate(0,0)"/>
<path d="" fill="#000000" transform="translate(0,0)"/>
<path d="" fill="#000000" transform="translate(0,0)"/>
<path d="" fill="#000000" transform="translate(0,0)"/>
<path d="" fill="#000000" transform="translate(0,0)"/>
<path d="" fill="#000000" transform="translate(0,0)"/>
<path d="" fill="#000000" transform="translate(0,0)"/>
<path d="" fill="#000000" transform="translate(0,0)"/>
<path d="" fill="#000000" transform="translate(0,0)"/>
<path d="" fill="#000000" transform="translate(0,0)"/>
<path d="" fill="#000000" transform="translate(0,0)"/>
<path d="" fill="#000000" transform="translate(0,0)"/>
<path d="" fill="#000000" transform="translate(0,0)"/>
<path d="" fill="#000000" transform="translate(0,0)"/>
<path d="" fill="#000000" transform="translate(0,0)"/>
<path d="" fill="#000000" transform="translate(0,0)"/>
<path d="" fill="#000000" transform="translate(0,0)"/>
<path d="" fill="#000000" transform="translate(0,0)"/>
<path d="" fill="#000000" transform="translate(0,0)"/>
<path d="" fill="#000000" transform="translate(0,0)"/>
<path d="" fill="#000000" transform="translate(0,0)"/>
<path d="" fill="#000000" transform="translate(0,0)"/>
<path d="" fill="#000000" transform="translate(0,0)"/>
<path d="" fill="#000000" transform="translate(0,0)"/>
<path d="" fill="#000000" transform="translate(0,0)"/>
<path d="" fill="#000000" transform="translate(0,0)"/>
<path d="" fill="#000000" transform="translate(0,0)"/>
<path d="" fill="#000000" transform="translate(0,0)"/>
<path d="" fill="#000000" transform="translate(0,0)"/>
<path d="" fill="#000000" transform="translate(0,0)"/>
<path d="" fill="#000000" transform="translate(0,0)"/>
<path d="" fill="#000000" transform="translate(0,0)"/>
<path d="" fill="#000000" transform="translate(0,0)"/>
<path d="" fill="#000000" transform="translate(0,0)"/>
<path d="" fill="#000000" transform="translate(0,0)"/>
<path d="" fill="#000000" transform="translate(0,0)"/>
<path d="" fill="#000000" transform="translate(0,0)"/>
<path d="" fill="#000000" transform="translate(0,0)"/>
<path d="" fill="#000000" transform="translate(0,0)"/>
<path d="" fill="#000000" transform="translate(0,0)"/>
<path d="" fill="#000000" transform="translate(0,0)"/>
<path d="" fill="#000000" transform="translate(0,0)"/>
</svg>
